Coordinates
version=1
nRows=31
nColumns=38
inDegrees=no

Units are S.I. units (second, meters, Newtons, ...)
If the header above contains a line with 'inDegrees', this indicates whether rotational values are in degrees (yes) or radians (no).

endheader
time	pelvis_tilt	pelvis_list	pelvis_rotation	pelvis_tx	pelvis_ty	pelvis_tz	hip_flexion_r	hip_adduction_r	hip_rotation_r	knee_angle_r	ankle_angle_r	subtalar_angle_r	mtp_angle_r	hip_flexion_l	hip_adduction_l	hip_rotation_l	knee_angle_l	ankle_angle_l	subtalar_angle_l	mtp_angle_l	lumbar_extension	lumbar_bending	lumbar_rotation	arm_flex_r	arm_add_r	arm_rot_r	elbow_flex_r	pro_sup_r	wrist_flex_r	wrist_dev_r	arm_flex_l	arm_add_l	arm_rot_l	elbow_flex_l	pro_sup_l	wrist_flex_l	wrist_dev_l
1.46	0.647349	1.37589	-2.04141	0.526567	0.499944	0.902223	-0.246922	-0.23324	-0.550011	0.839528	-0.0978011	0	0	0.135445	0.216605	0.00864012	0.257116	-0.228379	0	0	-0.156864	-0.000522143	0.208623	-0.360392	-0.522613	-0.313857	1.65277	0.860881	0	0	0.475722	-0.378303	0.580082	0.995926	0.829916	0	0
1.47	0.670336	1.38198	-2.05901	0.528921	0.48935	0.901317	-0.221635	-0.246268	-0.532563	0.890219	-0.15444	0	0	0.149794	0.221015	0.0368079	0.301218	-0.21425	0	0	-0.146616	-0.000905778	0.204856	-0.36566	-0.521739	-0.317067	1.65286	0.858913	0	0	0.472293	-0.364344	0.562415	0.987151	0.826378	0	0
1.48	0.684472	1.38024	-2.06961	0.530848	0.479069	0.901207	-0.200426	-0.262676	-0.513782	0.94343	-0.199537	0	0	0.15454	0.226987	0.057646	0.342378	-0.205892	0	0	-0.147461	-0.00607438	0.197578	-0.362907	-0.523198	-0.313473	1.65129	0.855743	0	0	0.495846	-0.394806	0.633084	0.996414	0.786742	0	0
1.49	0.701505	1.37716	-2.08485	0.53254	0.468906	0.901564	-0.175331	-0.281025	-0.492838	0.998135	-0.242544	0	0	0.154662	0.233737	0.0740491	0.374995	-0.202023	0	0	-0.148403	-0.0109698	0.196245	-0.364771	-0.521902	-0.316196	1.65172	0.853588	0	0	0.494424	-0.382702	0.61454	0.988437	0.798506	0	0
1.5	0.720507	1.37377	-2.10178	0.534134	0.458904	0.901977	-0.146435	-0.300663	-0.474399	1.05257	-0.34153	0	0	0.152532	0.241946	0.094381	0.405863	-0.185252	0	0	-0.149575	-0.0171246	0.192898	-0.363934	-0.521711	-0.315626	1.65064	0.8494	0	0	0.503237	-0.386624	0.630539	0.986355	0.793054	0	0
1.51	0.72957	1.36592	-2.11192	0.53524	0.448955	0.902877	-0.119137	-0.320418	-0.454041	1.10748	-0.381744	0	0	0.141238	0.248828	0.100595	0.422581	-0.180303	0	0	-0.156605	-0.0246169	0.190683	-0.360141	-0.521064	-0.313924	1.64951	0.847786	0	0	0.513303	-0.396275	0.651785	0.988927	0.787932	0	0
1.52	0.7405	1.36089	-2.12516	0.536378	0.438964	0.903827	-0.0865252	-0.337867	-0.431461	1.15967	-0.450794	0	0	0.130418	0.254531	0.103487	0.433587	-0.170603	0	0	-0.158573	-0.0282313	0.194732	-0.363283	-0.520822	-0.31742	1.65072	0.840709	0	0	0.483513	-0.344669	0.539458	0.969018	0.84426	0	0
1.53	0.748105	1.35101	-2.13537	0.537243	0.42898	0.904716	-0.058253	-0.363111	-0.419385	1.218	-0.471439	0	0	0.113364	0.261547	0.0994697	0.439469	-0.165743	0	0	-0.167675	-0.0378821	0.189001	-0.353835	-0.521665	-0.309639	1.6483	0.839271	0	0	0.510334	-0.389066	0.627591	0.986455	0.796919	0	0
1.54	0.752771	1.34328	-2.14394	0.538016	0.418864	0.905726	-0.0281017	-0.384334	-0.405782	1.27033	-0.505116	0	0	0.0964192	0.266217	0.0904321	0.43992	-0.158938	0	0	-0.173027	-0.0436733	0.189564	-0.351462	-0.524295	-0.305784	1.64819	0.831909	0	0	0.505823	-0.382525	0.608337	0.98482	0.799524	0	0
1.55	0.747008	1.33628	-2.14079	0.538803	0.408742	0.906791	-0.00142632	-0.404391	-0.400582	1.31819	-0.514567	0	0	0.0769732	0.268817	0.0865296	0.438079	-0.15482	0	0	-0.179607	-0.0474166	0.186157	-0.345582	-0.525951	-0.300013	1.64703	0.831006	0	0	0.512733	-0.396559	0.629488	0.991482	0.793507	0	0
1.56	0.734979	1.32931	-2.13225	0.539396	0.398461	0.908066	0.0222967	-0.424493	-0.399762	1.36242	-0.492137	0	0	0.0541795	0.269073	0.0795025	0.430856	-0.150612	0	0	-0.185668	-0.0493673	0.185467	-0.341935	-0.527226	-0.296177	1.64615	0.828979	0	0	0.514977	-0.400134	0.634217	0.992485	0.78593	0	0
1.57	0.711753	1.32392	-2.11401	0.53983	0.388405	0.909808	0.0484102	-0.429287	-0.382881	1.39807	-0.451945	0	0	0.0307462	0.265496	0.0711849	0.422757	-0.145839	0	0	-0.191943	-0.0472617	0.187454	-0.339057	-0.529124	-0.293687	1.64467	0.825999	0	0	0.514837	-0.396307	0.629043	0.988143	0.781494	0	0
1.58	0.686102	1.31819	-2.09268	0.540302	0.378406	0.911865	0.0721865	-0.432061	-0.367745	1.42734	-0.421171	0	0	0.00508275	0.261076	0.0640141	0.412865	-0.142465	0	0	-0.199071	-0.0447594	0.187798	-0.334555	-0.530816	-0.289923	1.64147	0.824149	0	0	0.520499	-0.401357	0.643458	0.986583	0.77152	0	0
1.59	0.634938	1.31631	-2.05022	0.540414	0.369558	0.914938	0.10391	-0.384684	-0.298086	1.43594	-0.383919	0	0	-0.0193536	0.247868	0.0551127	0.400641	-0.142564	0	0	-0.209158	-0.0337103	0.191191	-0.324812	-0.535095	-0.28415	1.63446	0.822962	0	0	0.528539	-0.406819	0.66318	0.983107	0.763202	0	0
1.6	0.610346	1.31082	-2.02876	0.540956	0.359571	0.91736	0.125181	-0.384325	-0.28671	1.45358	-0.354255	0	0	-0.0471094	0.242104	0.0455179	0.384256	-0.144542	0	0	-0.215428	-0.0295972	0.193024	-0.323209	-0.536511	-0.282883	1.63123	0.819808	0	0	0.525558	-0.397183	0.649524	0.974849	0.765547	0	0
1.61	0.608338	1.30215	-2.02317	0.542052	0.348497	0.918937	0.136158	-0.430767	-0.332061	1.47833	-0.343364	0	0	-0.0776379	0.24301	0.0409617	0.368785	-0.143687	0	0	-0.219935	-0.0330692	0.186466	-0.323176	-0.536079	-0.279886	1.6299	0.81724	0	0	0.529669	-0.40801	0.667818	0.980683	0.75998	0	0
1.62	0.560699	1.30481	-1.98101	0.542476	0.339862	0.921638	0.168979	-0.377444	-0.269528	1.46862	-0.331365	0	0	-0.0955263	0.228132	0.0419219	0.361753	-0.140876	0	0	-0.225082	-0.0183427	0.189382	-0.317033	-0.538754	-0.278459	1.62429	0.819681	0	0	0.530655	-0.403715	0.667774	0.974849	0.759057	0	0
1.63	0.5576	1.29777	-1.9732	0.543759	0.328878	0.923013	0.179416	-0.419111	-0.315286	1.48017	-0.309084	0	0	-0.124394	0.226603	0.0358318	0.344557	-0.143875	0	0	-0.227441	-0.0183462	0.186101	-0.323607	-0.540516	-0.279683	1.62645	0.81215	0	0	0.521227	-0.38917	0.638132	0.969015	0.769535	0	0
1.64	0.513791	1.3011	-1.93352	0.544284	0.320505	0.925146	0.209988	-0.365923	-0.258932	1.45955	-0.291287	0	0	-0.13923	0.211794	0.0355136	0.338183	-0.142485	0	0	-0.232733	-0.00461494	0.185286	-0.314982	-0.545866	-0.274379	1.62173	0.811687	0	0	0.531374	-0.403693	0.671174	0.974832	0.753637	0	0
1.65	0.496326	1.30162	-1.91357	0.545325	0.310969	0.926356	0.231367	-0.360582	-0.25766	1.44792	-0.28235	0	0	-0.15619	0.204114	0.0341722	0.33029	-0.140332	0	0	-0.234083	0.00212182	0.181476	-0.314654	-0.547607	-0.274238	1.62175	0.810371	0	0	0.531489	-0.404167	0.671967	0.975974	0.752611	0	0
1.66	0.480951	1.30289	-1.89548	0.546362	0.301438	0.927347	0.252191	-0.355644	-0.258604	1.43239	-0.252718	0	0	-0.172132	0.196353	0.02894	0.321093	-0.140517	0	0	-0.233255	0.0101922	0.18228	-0.320968	-0.549333	-0.279757	1.62496	0.80567	0	0	0.517677	-0.375814	0.619188	0.962389	0.772622	0	0
1.67	0.46656	1.30236	-1.87745	0.547316	0.292172	0.928102	0.269906	-0.350856	-0.260743	1.41244	-0.234555	0	0	-0.189353	0.189314	0.0244773	0.312826	-0.139463	0	0	-0.236733	0.0149783	0.176001	-0.318695	-0.551785	-0.278115	1.62597	0.803323	0	0	0.532028	-0.396096	0.663943	0.973056	0.74893	0	0
1.68	0.457122	1.30289	-1.86369	0.548312	0.282932	0.928561	0.288029	-0.347806	-0.264611	1.3891	-0.223655	0	0	-0.204459	0.183557	0.0212989	0.30642	-0.138268	0	0	-0.238651	0.0190706	0.169911	-0.3177	-0.553276	-0.278466	1.62768	0.801767	0	0	0.539589	-0.406558	0.684201	0.980357	0.744927	0	0
1.69	0.445363	1.30277	-1.84772	0.549257	0.273621	0.929046	0.30239	-0.343628	-0.269372	1.35976	-0.202885	0	0	-0.221405	0.176847	0.0142538	0.296621	-0.136618	0	0	-0.239976	0.0252629	0.169101	-0.323427	-0.554174	-0.285169	1.63215	0.797869	0	0	0.535171	-0.390007	0.658893	0.972067	0.75171	0	0
1.7	0.43679	1.30252	-1.83425	0.550159	0.264335	0.92925	0.314944	-0.340552	-0.274578	1.32644	-0.192928	0	0	-0.238218	0.170814	0.0106572	0.288122	-0.134493	0	0	-0.242501	0.0288935	0.162754	-0.322319	-0.55495	-0.285786	1.63373	0.795964	0	0	0.543796	-0.400921	0.68178	0.979351	0.743745	0	0
1.71	0.432381	1.30345	-1.82491	0.551042	0.254958	0.929228	0.327003	-0.338114	-0.278993	1.28902	-0.186158	0	0	-0.253137	0.165652	0.00837716	0.280507	-0.132668	0	0	-0.243106	0.0318504	0.156586	-0.321398	-0.555064	-0.286654	1.63482	0.79492	0	0	0.54864	-0.407199	0.69341	0.98448	0.743381	0	0
1.72	0.431316	1.30602	-1.81915	0.551912	0.24548	0.929066	0.338594	-0.3354	-0.282456	1.24643	-0.183812	0	0	-0.265748	0.16105	0.00693561	0.273474	-0.129094	0	0	-0.240197	0.0357068	0.154626	-0.325331	-0.554015	-0.292421	1.63675	0.795106	0	0	0.542215	-0.390396	0.665624	0.97565	0.752655	0	0
1.73	0.422224	1.304	-1.80704	0.55259	0.236122	0.929184	0.340898	-0.330178	-0.285357	1.19548	-0.168837	0	0	-0.285181	0.154941	-0.00106974	0.25973	-0.130668	0	0	-0.244777	0.0389225	0.149897	-0.322719	-0.554749	-0.29292	1.63738	0.795575	0	0	0.549851	-0.399243	0.68418	0.981309	0.750394	0	0
1.74	0.425315	1.30616	-1.80697	0.55323	0.226673	0.928749	0.347571	-0.327533	-0.287153	1.14251	-0.164704	0	0	-0.29745	0.151673	-0.00367569	0.252532	-0.129095	0	0	-0.243407	0.0399099	0.145961	-0.321322	-0.554922	-0.293435	1.63702	0.79584	0	0	0.553868	-0.402204	0.692323	0.983143	0.750085	0	0
1.75	0.430761	1.31006	-1.81059	0.553748	0.217117	0.928128	0.353584	-0.324116	-0.287711	1.08419	-0.159441	0	0	-0.307385	0.149078	-0.00672252	0.245974	-0.127864	0	0	-0.238944	0.0417091	0.146914	-0.32444	-0.554199	-0.298575	1.63755	0.795869	0	0	0.546853	-0.383824	0.662279	0.972473	0.762662	0	0
1.76	0.437198	1.31378	-1.81661	0.554077	0.207541	0.927295	0.357054	-0.320162	-0.287065	1.02127	-0.152196	0	0	-0.317211	0.147133	-0.0109871	0.240007	-0.1264	0	0	-0.236108	0.0419171	0.146027	-0.323372	-0.554077	-0.300021	1.63693	0.795837	0	0	0.547604	-0.383354	0.661415	0.972695	0.772111	0	0
